<?xml version="1.0" standalone="no"?>
<svg xmlns:xlink="http://www.w3.org/1999/xlink" id="wave" style="transform:rotate(0deg); transition: 0.3s" viewBox="0 0 1440 220" version="1.1" xmlns="http://www.w3.org/2000/svg"><defs><linearGradient id="sw-gradient-0" x1="0" x2="0" y1="1" y2="0"><stop stop-color="rgba(243, 106, 62, 1)" offset="0%"/><stop stop-color="rgba(255, 179, 11, 1)" offset="100%"/></linearGradient></defs><path style="transform:translate(0, 0px); opacity:1" fill="url(#sw-gradient-0)" d="M0,0L18.5,3.7C36.9,7,74,15,111,18.3C147.7,22,185,22,222,44C258.5,66,295,110,332,117.3C369.2,125,406,95,443,102.7C480,110,517,154,554,150.3C590.8,147,628,95,665,77C701.5,59,738,73,775,88C812.3,103,849,117,886,124.7C923.1,132,960,132,997,113.7C1033.8,95,1071,59,1108,66C1144.6,73,1182,125,1218,132C1255.4,139,1292,103,1329,95.3C1366.2,88,1403,110,1440,128.3C1476.9,147,1514,161,1551,172.3C1587.7,183,1625,191,1662,187C1698.5,183,1735,169,1772,157.7C1809.2,147,1846,139,1883,128.3C1920,117,1957,103,1994,95.3C2030.8,88,2068,88,2105,84.3C2141.5,81,2178,73,2215,73.3C2252.3,73,2289,81,2326,88C2363.1,95,2400,103,2437,110C2473.8,117,2511,125,2548,135.7C2584.6,147,2622,161,2640,168.7L2658.5,176L2658.5,220L2640,220C2621.5,220,2585,220,2548,220C2510.8,220,2474,220,2437,220C2400,220,2363,220,2326,220C2289.2,220,2252,220,2215,220C2178.5,220,2142,220,2105,220C2067.7,220,2031,220,1994,220C1956.9,220,1920,220,1883,220C1846.2,220,1809,220,1772,220C1735.4,220,1698,220,1662,220C1624.6,220,1588,220,1551,220C1513.8,220,1477,220,1440,220C1403.1,220,1366,220,1329,220C1292.3,220,1255,220,1218,220C1181.5,220,1145,220,1108,220C1070.8,220,1034,220,997,220C960,220,923,220,886,220C849.2,220,812,220,775,220C738.5,220,702,220,665,220C627.7,220,591,220,554,220C516.9,220,480,220,443,220C406.2,220,369,220,332,220C295.4,220,258,220,222,220C184.6,220,148,220,111,220C73.8,220,37,220,18,220L0,220Z"/><defs><linearGradient id="sw-gradient-1" x1="0" x2="0" y1="1" y2="0"><stop stop-color="rgba(243, 106, 62, 1)" offset="0%"/><stop stop-color="rgba(255, 179, 11, 1)" offset="100%"/></linearGradient></defs><path style="transform:translate(0, 50px); opacity:0.9" fill="url(#sw-gradient-1)" d="M0,132L18.5,143C36.9,154,74,176,111,183.3C147.7,191,185,183,222,165C258.5,147,295,117,332,99C369.2,81,406,73,443,58.7C480,44,517,22,554,33C590.8,44,628,88,665,88C701.5,88,738,44,775,36.7C812.3,29,849,59,886,58.7C923.1,59,960,29,997,40.3C1033.8,51,1071,103,1108,121C1144.6,139,1182,125,1218,128.3C1255.4,132,1292,154,1329,157.7C1366.2,161,1403,147,1440,117.3C1476.9,88,1514,44,1551,22C1587.7,0,1625,0,1662,29.3C1698.5,59,1735,117,1772,117.3C1809.2,117,1846,59,1883,33C1920,7,1957,15,1994,36.7C2030.8,59,2068,95,2105,99C2141.5,103,2178,73,2215,84.3C2252.3,95,2289,147,2326,154C2363.1,161,2400,125,2437,113.7C2473.8,103,2511,117,2548,113.7C2584.6,110,2622,88,2640,77L2658.5,66L2658.5,220L2640,220C2621.5,220,2585,220,2548,220C2510.8,220,2474,220,2437,220C2400,220,2363,220,2326,220C2289.2,220,2252,220,2215,220C2178.5,220,2142,220,2105,220C2067.7,220,2031,220,1994,220C1956.9,220,1920,220,1883,220C1846.2,220,1809,220,1772,220C1735.4,220,1698,220,1662,220C1624.6,220,1588,220,1551,220C1513.8,220,1477,220,1440,220C1403.1,220,1366,220,1329,220C1292.3,220,1255,220,1218,220C1181.5,220,1145,220,1108,220C1070.8,220,1034,220,997,220C960,220,923,220,886,220C849.2,220,812,220,775,220C738.5,220,702,220,665,220C627.7,220,591,220,554,220C516.9,220,480,220,443,220C406.2,220,369,220,332,220C295.4,220,258,220,222,220C184.6,220,148,220,111,220C73.8,220,37,220,18,220L0,220Z"/></svg>